PathFileType	4	(X/Y/Z)	/Users/itak/Documents/Research/Walk-IL/dataset/trc/00490_00167.trc
DataRate	CameraRate	NumFrames	NumMarkers	Units	OrigDataRate	OrigDataStartFrame	OrigNumFrames
100.000000	100.000000	4	53	mm	100.000000	271	542
Frame#	Time	RPSI			LPSI			L3			STRN			T10			C7			CLAV			RBAK			LBAK			LSHO			LUPA			LAEL			LAOL			LWTS			LWPS			LFRA			LIFD			LHPS			LHTS			RSHO			RUPA			RAEL			RAOL			RWTS			RWPS			RFRA			RIFD			RHTS			RHPS			RBHD			LFHD			RFHD			LBHD			LHIP			RHIP			RASI			LASI			LKNE			LTHI			LANK			LTIP			LTOE			LMT1			LMT5			LHEE			RKNE			RTHI			RANK			RTIP			RTOE			RMT1			RMT5			RHEE			
		X1	Y1	Z1	X2	Y2	Z2	X3	Y3	Z3	X4	Y4	Z4	X5	Y5	Z5	X6	Y6	Z6	X7	Y7	Z7	X8	Y8	Z8	X9	Y9	Z9	X10	Y10	Z10	X11	Y11	Z11	X12	Y12	Z12	X13	Y13	Z13	X14	Y14	Z14	X15	Y15	Z15	X16	Y16	Z16	X17	Y17	Z17	X18	Y18	Z18	X19	Y19	Z19	X20	Y20	Z20	X21	Y21	Z21	X22	Y22	Z22	X23	Y23	Z23	X24	Y24	Z24	X25	Y25	Z25	X26	Y26	Z26	X27	Y27	Z27	X28	Y28	Z28	X29	Y29	Z29	X30	Y30	Z30	X31	Y31	Z31	X32	Y32	Z32	X33	Y33	Z33	X34	Y34	Z34	X35	Y35	Z35	X36	Y36	Z36	X37	Y37	Z37	X38	Y38	Z38	X39	Y39	Z39	X40	Y40	Z40	X41	Y41	Z41	X42	Y42	Z42	X43	Y43	Z43	X44	Y44	Z44	X45	Y45	Z45	X46	Y46	Z46	X47	Y47	Z47	X48	Y48	Z48	X49	Y49	Z49	X50	Y50	Z50	X51	Y51	Z51	X52	Y52	Z52	X53	Y53	Z53	

272	2.71	-872.070068359375	904.6355590820312	88.22770690917969	-817.668212890625	919.6406860351562	-42.56873321533203	-834.6922607421875	1011.641845703125	28.70824432373047	-576.9566040039062	1204.063354492188	136.1116943359375	-839.2813720703125	1136.370483398438	14.2293004989624	-774.6968994140625	1405.618286132812	51.78256225585938	-606.2074584960938	1317.304077148438	117.8056640625	-875.0203857421875	1288.881713867188	108.1712417602539	-764.4869384765625	1356.567504882812	-54.43054580688477	-638.939453125	1373.97412109375	-78.93270874023438	-593.0855712890625	1260.007934570312	-169.0082244873047	-515.06396484375	1060.61669921875	-188.7062377929688	-608.9786376953125	1018.932861328125	-173.7679443359375	-409.6098327636719	907.0442504882812	-71.72795104980469	-406.9703674316406	875.7892456054688	-138.894287109375	-464.3712158203125	987.8226318359375	-170.3301849365234	-341.6484985351562	763.21533203125	-39.07925033569336	-370.0730285644531	810.4138793945312	-117.6911926269531	-358.9656982421875	838.7459716796875	-51.75687789916992	-782.551025390625	1374.377197265625	224.6849670410156	-837.3255004882812	1319.404052734375	282.1997375488281	-905.3619384765625	1046.551879882812	346.0382995605469	-932.68603515625	1033.145263671875	284.7449645996094	-831.4622802734375	824.3299560546875	358.6776123046875	-919.544677734375	825.7367553710938	380.2749633789062	-917.2487182617188	989.7463989257812	358.13671875	-864.6414794921875	670.2799682617188	365.031494140625	-842.8150024414062	726.2182006835938	375.2897033691406	-919.4740600585938	736.1194458007812	384.6985168457031	-690.0752563476562	1605.500610351562	174.6572265625	-549.5177001953125	1606.005615234375	22.51514434814453	-554.0260009765625	1613.15673828125	152.948486328125	-700.3550415039062	1600.913940429688	-2.886887788772583	-649.7785034179688	826.5411376953125	-110.3575439453125	-796.9996948242188	814.3837280273438	265.8746643066406	-685.251953125	868.8457641601562	237.2715301513672	-584.079345703125	856.0518798828125	0.6607704162597656	-730.3322143554688	409.7403259277344	-90.50753784179688	-666.3897094726562	558.7794189453125	-85.92723083496094	-988.277587890625	89.09980010986328	-209.6886138916016	-805.9992065429688	275.7801208496094	-136.0269775390625	-858.4517211914062	41.90000152587891	-15.63536167144775	-928.7147827148438	55.47744750976562	-39.97631072998047	-865.7745361328125	44.8123779296875	-133.4317932128906	-1055.619995117188	119.7778854370117	-181.8516387939453	-622.2817993164062	465.3625793457031	322.3564147949219	-722.3763427734375	703.5955200195312	312.1905517578125	-548.8115234375	33.49130630493164	389.6495361328125	-581.0185546875	333.2852172851562	358.7303771972656	-341.8814392089844	104.0686340332031	390.6626892089844	-391.0849914550781	87.69049835205078	338.7551879882812	-428.2797546386719	61.42446899414062	434.8256530761719	-600.3392944335938	23.4946346282959	328.0506591796875	
273	2.72	-862.4036254882812	903.3682861328125	95.15892028808594	-808.4257202148438	917.5009765625	-36.03770065307617	-825.2318115234375	1010.566345214844	35.85442733764648	-567.5621948242188	1203.543701171875	142.3755340576172	-830.2598876953125	1135.4189453125	21.84126472473145	-766.2907104492188	1404.873779296875	59.43704986572266	-597.1288452148438	1316.704956054688	124.1933212280273	-865.987060546875	1287.714599609375	116.2932357788086	-756.8026733398438	1355.91943359375	-46.92190170288086	-631.226806640625	1373.347534179688	-72.43814086914062	-586.9114990234375	1258.857788085938	-162.9360198974609	-510.8760681152344	1058.83984375	-183.5823974609375	-605.0596313476562	1018.146057128906	-167.4601593017578	-405.5694885253906	903.51953125	-68.76225280761719	-404.1857604980469	872.6902465820312	-136.1546478271484	-460.7750549316406	985.3953247070312	-166.2359924316406	-338.7134399414062	758.8665161132812	-37.96969985961914	-367.677734375	806.8861083984375	-115.9229278564453	-355.6587524414062	834.5737915039062	-49.94381332397461	-772.9642333984375	1373.156982421875	232.3688507080078	-827.1646118164062	1317.750732421875	290.1374816894531	-893.8619995117188	1044.7060546875	353.83837890625	-921.4871215820312	1031.503295898438	292.650146484375	-820.7303466796875	822.1796264648438	365.5096130371094	-908.66552734375	823.9853515625	387.6072387695312	-905.8336181640625	987.9521484375	365.8362426757812	-854.8138427734375	668.2752685546875	371.6228332519531	-832.4989013671875	724.0333862304688	381.8917236328125	-909.114013671875	734.3857421875	391.8049011230469	-680.7325439453125	1605.1298828125	181.7150573730469	-542.3267211914062	1605.714233398438	27.59621810913086	-545.0140991210938	1613.085327148438	158.0204162597656	-693.4641723632812	1600.154907226562	4.325501918792725	-640.6807250976562	824.2442626953125	-103.9285507202148	-786.0377197265625	814.3705444335938	272.98828125	-674.6587524414062	869.4224853515625	243.9759826660156	-574.7844848632812	854.8839111328125	6.900462627410889	-719.3966064453125	407.2846069335938	-84.14654541015625	-655.6866455078125	556.6284790039062	-78.98345184326172	-986.001708984375	94.89053344726562	-207.7349548339844	-798.7077026367188	275.6769104003906	-131.6891021728516	-858.5439453125	41.97057723999023	-15.71878910064697	-927.685791015625	55.93722152709961	-38.99241256713867	-865.6025390625	44.88555526733398	-132.7332611083984	-1051.98681640625	127.4831466674805	-178.9720153808594	-608.194091796875	466.5610046386719	328.40869140625	-710.3533325195312	703.9146728515625	318.8091735839844	-547.4204711914062	32.90129089355469	390.0448303222656	-569.043212890625	332.7115783691406	362.9082336425781	-336.59033203125	93.57370758056641	390.1429443359375	-386.9518127441406	80.07051849365234	338.7345886230469	-425.208740234375	55.40748977661133	435.1312866210938	-599.6223754882812	25.28452491760254	328.5408020019531	
274	2.73	-852.7432861328125	902.462158203125	101.9311676025391	-799.197509765625	915.4366455078125	-29.65862464904785	-815.8190307617188	1009.930236816406	42.99874877929688	-558.0652465820312	1203.372802734375	148.5811920166016	-821.2822265625	1134.893920898438	29.4378490447998	-757.7988891601562	1404.454711914062	67.06353759765625	-587.9620361328125	1316.452392578125	130.5373077392578	-856.872802734375	1286.9296875	124.4267578125	-749.0272827148438	1355.62841796875	-39.45546340942383	-623.4228515625	1373.084594726562	-65.97445678710938	-580.6913452148438	1258.067260742188	-156.8610076904297	-506.9430847167969	1057.317260742188	-178.4052124023438	-601.4442138671875	1017.80322265625	-160.9847259521484	-401.9573669433594	899.9073486328125	-66.07881164550781	-402.0574951171875	869.595703125	-133.7141571044922	-457.5853576660156	983.0978393554688	-162.2393188476562	-336.4229431152344	754.3181762695312	-37.49913787841797	-366.0487365722656	803.2979736328125	-114.6231536865234	-352.86083984375	830.2362060546875	-48.63085174560547	-763.2348022460938	1372.278930664062	240.018798828125	-816.83251953125	1316.452026367188	298.0717163085938	-882.0932006835938	1043.191650390625	361.6592712402344	-910.0675048828125	1030.180786132812	300.6126403808594	-809.750732421875	820.332763671875	372.3261413574219	-897.4226684570312	822.551025390625	395.0062561035156	-894.1141967773438	986.485107421875	373.5709228515625	-844.6152954101562	666.6136474609375	378.2385864257812	-821.7985229492188	722.1956176757812	388.5076293945312	-898.3704833984375	732.9672241210938	398.9691772460938	-671.2451171875	1605.019165039062	188.7657623291016	-535.1029663085938	1605.677734375	32.63359451293945	-535.8795776367188	1613.265869140625	163.0381469726562	-686.5017700195312	1599.68359375	11.57552909851074	-631.5675659179688	821.9586791992188	-97.45625305175781	-775.1237182617188	814.8150024414062	280.0075988769531	-664.1727294921875	870.4054565429688	250.5867156982422	-565.5511474609375	853.983154296875	13.13232421875	-707.3099365234375	404.742919921875	-77.55153656005859	-644.1813354492188	554.508544921875	-71.88787078857422	-983.3362426757812	101.6010665893555	-204.9990692138672	-790.5953369140625	275.8504943847656	-127.014030456543	-858.677734375	42.02046966552734	-15.84982395172119	-926.4307861328125	56.46732330322266	-37.70746612548828	-865.3850708007812	45.17481994628906	-131.8826599121094	-1047.579833984375	136.2601928710938	-174.943359375	-594.5591430664062	468.0009765625	334.4668273925781	-698.4904174804688	704.6441040039062	325.3709106445312	-546.4505004882812	32.69524765014648	390.2567749023438	-557.8294067382812	332.3680114746094	367.0835266113281	-332.36572265625	84.15945434570312	389.7186279296875	-383.6746215820312	73.44388580322266	338.8377685546875	-422.9715576171875	50.50539779663086	435.7105712890625	-599.0856323242188	26.98249053955078	328.8915100097656	
275	2.74	-843.0930786132812	901.9110717773438	108.5575866699219	-790.0181884765625	913.476318359375	-23.41847038269043	-806.4907836914062	1009.713134765625	50.13162994384766	-548.4950561523438	1203.5166015625	154.6718902587891	-812.406982421875	1134.74755859375	36.96821594238281	-749.2438354492188	1404.314697265625	74.62044525146484	-578.7265625	1316.515869140625	136.7969055175781	-847.6808471679688	1286.493041992188	132.5460968017578	-741.1812744140625	1355.651489257812	-32.07486724853516	-615.57470703125	1373.161376953125	-59.56595230102539	-574.4193115234375	1257.653442382812	-150.8086547851562	-503.2448120117188	1056.069702148438	-173.1915130615234	-598.1170043945312	1017.93359375	-154.372802734375	-398.7999877929688	896.2364501953125	-63.68125534057617	-400.588623046875	866.54150390625	-131.5626678466797	-454.7852783203125	980.9625854492188	-158.3465270996094	-334.8121948242188	749.5983276367188	-37.65849304199219	-365.20166015625	799.6821899414062	-113.7650756835938	-350.5610961914062	825.7694091796875	-47.80511474609375	-753.3685913085938	1371.739868164062	247.5918426513672	-806.3335571289062	1315.534423828125	305.9740600585938	-870.0730590820312	1042.02880859375	369.4844360351562	-898.4596557617188	1029.195556640625	308.6260681152344	-798.5197143554688	818.8091430664062	379.1173095703125	-885.8013305664062	821.44384765625	402.4745483398438	-882.0990600585938	985.3622436523438	381.33203125	-834.00537109375	665.3091430664062	384.8806762695312	-810.6878662109375	720.724609375	395.1368408203125	-887.208740234375	731.8734741210938	406.1968688964844	-661.6497192382812	1605.104125976562	195.7721252441406	-527.8711547851562	1605.860961914062	37.60387802124023	-526.660888671875	1613.650756835938	167.9804382324219	-679.4961547851562	1599.45068359375	18.83209419250488	-622.4811401367188	819.707763671875	-90.92498779296875	-764.2728881835938	815.6535034179688	286.9067993164062	-653.7985229492188	871.7097778320312	257.0850524902344	-556.3956298828125	853.3322143554688	19.33754348754883	-694.0158081054688	402.1415710449219	-70.82484436035156	-631.818115234375	552.4352416992188	-64.7308349609375	-980.1806640625	109.3171234130859	-201.3469696044922	-781.5855712890625	276.3564453125	-122.0306549072266	-858.8087768554688	42.01003646850586	-16.03597831726074	-924.8896484375	57.13194274902344	-36.08881378173828	-865.060791015625	45.81024932861328	-130.8579559326172	-1042.258422851562	146.1314239501953	-169.5985412597656	-581.518310546875	469.4892883300781	340.4415588378906	-686.7726440429688	705.738525390625	331.8801574707031	-545.730712890625	32.80994415283203	390.3123168945312	-547.4352416992188	332.0879211425781	371.1745910644531	-329.0431823730469	75.98317718505859	389.3431396484375	-381.1083374023438	67.91226959228516	339.0170288085938	-421.3815002441406	46.7774543762207	436.5058898925781	-598.6078491210938	28.50350379943848	329.1164245605469	
